<?xml version="1.0" encoding="utf-8"?>
<!-- Generator: Adobe Illustrator 21.0.0, SVG Export Plug-In . SVG Version: 6.00 Build 0)  -->
<svg version="1.1" id="Capa_1" xmlns="http://www.w3.org/2000/svg" xmlns:xlink="http://www.w3.org/1999/xlink" x="0px" y="0px"
	 viewBox="0 0 384 384" style="enable-background:new 0 0 384 384;" xml:space="preserve">
<style type="text/css">
	.st0{fill:#FFFFFF;}
</style>
<g>
	<g>
		<path class="st0" d="M0.3,384.6c0-127.9,0-255.9,0-383.8c128.3,0,256.5,0,384.7,0c0,127.9,0,255.8,0,383.8
			C256.8,384.6,128.5,384.6,0.3,384.6z M193.1,1.2C87.2,1.2,1.5,86.7,1.4,192.4C1.4,298.5,86.9,384.3,192.8,384.3
			c106.1,0,191.8-85.5,191.8-191.4C384.6,86.9,299,1.2,193.1,1.2z"/>
		<path d="M193.1,1.2c105.9,0,191.6,85.7,191.5,191.7c-0.1,105.9-85.8,191.5-191.8,191.4C86.9,384.3,1.4,298.5,1.4,192.4
			C1.5,86.7,87.2,1.2,193.1,1.2z M38.2,135c0.8,0.1,1.3,0.2,1.8,0.2c36.1,0,72.2,0,108.3,0.1c2.7,0,3.3-1.4,4-3.4
			c10.9-33.8,21.9-67.6,32.9-101.4c0.3-0.9,0.4-1.8,0.6-2.8C120,29,58.8,75.3,38.2,135z M347.9,135C324.6,69,258.2,27.8,200.2,27.8
			c0.3,1,0.5,2,0.8,2.9c10.9,33.7,21.9,67.4,32.7,101.1c0.9,2.7,2.1,3.4,4.7,3.4c35.4-0.1,70.7-0.1,106.1-0.1
			C345.6,135.2,346.6,135.1,347.9,135z M33.6,148.5c-18.2,61.9,4.3,134,56.5,173.5c0.3-0.7,0.7-1.3,0.9-2
			c11.1-34,22.1-68.1,33.2-102.1c0.8-2.5,0.1-3.5-1.8-4.9c-18.4-13.3-36.8-26.7-55.2-40C56.2,164.9,45.1,156.8,33.6,148.5z
			 M352.4,148.7c-0.7,0.4-1.3,0.7-1.9,1.2c-29.1,21.1-58.2,42.3-87.3,63.3c-2.1,1.5-2,2.9-1.3,5.1c11,33.5,21.8,67.1,32.7,100.7
			c0.3,1,0.8,2,1.2,3.1C349.8,280.8,370.1,207.9,352.4,148.7z M101.8,330.6c57.6,39.8,135.7,33.9,182.1-0.1c-0.9-0.7-1.8-1.4-2.7-2
			c-28.4-20.6-56.8-41.3-85.2-62c-2.3-1.7-3.8-1.7-6.1,0c-20.2,14.9-40.6,29.6-60.9,44.3C120,317.3,111.1,323.8,101.8,330.6z
			 M193,158.9c-7.2,0-14.5,0.1-21.7,0c-2.2,0-3.3,0.6-4,2.8c-4.4,13.9-8.9,27.8-13.5,41.6c-0.7,2.1-0.2,3.1,1.4,4.3
			c11.9,8.5,23.7,17.1,35.5,25.8c1.7,1.2,2.8,1.3,4.5,0c11.8-8.7,23.6-17.2,35.5-25.8c1.6-1.2,2.2-2.1,1.5-4.3
			c-4.7-14-9.2-28-13.6-42c-0.6-1.9-1.5-2.5-3.4-2.5C207.8,159,200.4,158.9,193,158.9z M128.6,280.9c0.2,0.1,0.4,0.3,0.6,0.4
			c14.4-10.5,28.9-21,43.6-31.7c-9.5-6.9-18.4-13.3-27.6-20C139.6,247.1,134.1,264,128.6,280.9z M213.1,249.6
			c14.9,10.8,29.2,21.2,43.6,31.7c0.2-0.2,0.4-0.3,0.6-0.5c-5.5-16.9-11-33.9-16.7-51.2C231.3,236.4,222.5,242.9,213.1,249.6z
			 M132.9,191.3c3.6-11,7-21.5,10.4-32.2c-18.2,0-36,0-54.7,0C103.7,170.1,118.1,180.6,132.9,191.3z M253.1,191.3
			c14.8-10.8,29.2-21.2,44.1-32.1c-18.7,0-36.5,0-54.5,0C246.2,170,249.6,180.4,253.1,191.3z M193.5,84.2c-0.3,0-0.6,0-0.9,0
			c-5.5,16.8-10.9,33.6-16.4,50.7c11.6,0,22.4,0,33.8,0C204.3,117.7,198.9,101,193.5,84.2z"/>
		<path class="st0" d="M38.2,135C58.8,75.3,120,29,185.7,27.7c-0.2,1-0.3,1.9-0.6,2.8c-11,33.8-22,67.6-32.9,101.4
			c-0.7,2-1.2,3.4-4,3.4c-36.1-0.1-72.2-0.1-108.3-0.1C39.5,135.2,39,135.1,38.2,135z"/>
		<path class="st0" d="M347.9,135c-1.3,0.1-2.3,0.1-3.3,0.1c-35.4,0-70.7,0-106.1,0.1c-2.7,0-3.9-0.7-4.7-3.4
			C222.9,98.1,211.9,64.4,201,30.7c-0.3-0.9-0.5-1.9-0.8-2.9C258.2,27.8,324.6,69,347.9,135z"/>
		<path class="st0" d="M33.6,148.5c11.5,8.3,22.6,16.4,33.7,24.5c18.4,13.4,36.8,26.7,55.2,40c1.8,1.3,2.6,2.4,1.8,4.9
			c-11.2,34-22.2,68-33.2,102.1c-0.2,0.7-0.6,1.3-0.9,2C37.9,282.5,15.4,210.4,33.6,148.5z"/>
		<path class="st0" d="M352.4,148.7c17.7,59.3-2.5,132.1-56.5,173.4c-0.4-1.1-0.9-2.1-1.2-3.1c-10.9-33.6-21.8-67.1-32.7-100.7
			c-0.7-2.1-0.9-3.5,1.3-5.1c29.1-21.1,58.2-42.2,87.3-63.3C351,149.4,351.7,149.1,352.4,148.7z"/>
		<path class="st0" d="M101.8,330.6c9.3-6.8,18.3-13.3,27.2-19.8c20.3-14.8,40.7-29.5,60.9-44.3c2.3-1.7,3.8-1.7,6.1,0
			c28.3,20.7,56.8,41.3,85.2,62c0.9,0.6,1.8,1.3,2.7,2C237.5,364.5,159.3,370.3,101.8,330.6z"/>
		<path class="st0" d="M193,158.9c7.4,0,14.7,0.1,22.1,0c1.9,0,2.8,0.6,3.4,2.5c4.5,14,9,28,13.6,42c0.7,2.2,0.1,3.1-1.5,4.3
			c-11.9,8.5-23.7,17.1-35.5,25.8c-1.7,1.3-2.8,1.2-4.5,0c-11.8-8.7-23.6-17.2-35.5-25.8c-1.7-1.2-2.1-2.2-1.4-4.3
			c4.6-13.8,9.1-27.7,13.5-41.6c0.7-2.2,1.8-2.8,4-2.8C178.5,159,185.8,158.9,193,158.9z"/>
		<path class="st0" d="M128.6,280.9c5.5-16.9,11-33.8,16.6-51.3c9.2,6.7,18.1,13.1,27.6,20c-14.7,10.7-29.2,21.2-43.6,31.7
			C129,281.2,128.8,281.1,128.6,280.9z"/>
		<path class="st0" d="M213.1,249.6c9.3-6.8,18.2-13.2,27.6-20c5.6,17.3,11.1,34.3,16.7,51.2c-0.2,0.2-0.4,0.3-0.6,0.5
			C242.4,270.9,228,260.5,213.1,249.6z"/>
		<path class="st0" d="M132.9,191.3c-14.8-10.8-29.2-21.2-44.3-32.2c18.7,0,36.5,0,54.7,0C139.8,169.8,136.4,180.3,132.9,191.3z"/>
		<path class="st0" d="M253.1,191.3c-3.5-10.9-6.9-21.3-10.4-32.1c18.1,0,35.8,0,54.5,0C282.3,170.1,267.9,180.6,253.1,191.3z"/>
		<path class="st0" d="M193.5,84.2c5.4,16.8,10.9,33.5,16.5,50.7c-11.4,0-22.3,0-33.8,0c5.5-17,11-33.8,16.4-50.7
			C192.8,84.2,193.2,84.2,193.5,84.2z"/>
	</g>
</g>
</svg>
