<?xml version="1.0" encoding="utf-8"?>
<!-- Generator: Adobe Illustrator 21.0.0, SVG Export Plug-In . SVG Version: 6.00 Build 0)  -->
<svg version="1.1" id="Capa_1" xmlns="http://www.w3.org/2000/svg" xmlns:xlink="http://www.w3.org/1999/xlink" x="0px" y="0px"
	 viewBox="0 0 462.8 317.3" style="enable-background:new 0 0 462.8 317.3;" xml:space="preserve">
<style type="text/css">
	.st0{fill:#FFFFFF;}
</style>
<g>
	<g>
		<path class="st0" d="M201.3,318c-67,0-134,0-201,0c0-105.7,0-211.4,0-317.2c154.5,0,309,0,463.5,0c0,50.9,0,101.9,0,152.9
			c-0.3-1.1-0.6-2.1-0.9-3.2c-3.3-14.5-17.7-22.5-31-17.2c-1.1,0.4-1.7,2.2-2.6,3.3c1.3,0.4,2.5,1.1,3.8,1.2
			c1.8,0.1,3.7-0.6,5.5-0.4c8.3,1,13.7,6.5,14.5,14.6c0.8,8.6-4.3,16.8-12.2,19.4c-6.9,2.3-13.8,1.5-20-1.8
			c-8.1-4.3-15.8-9.5-23.6-14.5c-8.1-5.2-15.7-11.1-24-16c-13.6-8.2-28.2-14-44.3-14.8c-21.1-1-39,6.8-54.3,21.1
			c-0.8,0.8-1.7,1.5-2.6,2.3c0.1-7.7,2-14.6,8.1-19.1c5-3.7,10.5-6.7,16-9.5c7.3-3.7,13.5-8.6,17.7-15.7c3-5,7.2-8.1,12.6-10
			c1.2-0.4,2.6-2.3,2.7-3.6c0.7-7,2.3-9,9.5-11c1.1-0.3,2.6-1.8,2.6-2.8c0-4.3,2.1-7.4,4.9-10.2c7.3-7.1,15.9-11.5,26-12.9
			c1.1-0.1,2-1.3,3.1-2c-0.8-1-1.3-2.4-2.3-2.9c-1.6-0.9-3.5-1.4-5.3-1.8c-13.1-3.1-26.3-2.5-39.4,0.2c-12.1,2.5-23.5,6.8-32.5,15.8
			c-2.2,2.2-2.3,3.7-0.3,6.3c2.9,3.7,5.7,7.8,7.1,12.1c3.1,9.2-4.2,20-13.7,21.3c0-0.1-0.2-0.2-0.1-0.3c0.1-0.7,0.1-1.5,0.3-2.2
			c3.1-18.3-0.7-35.2-10.2-51c-11.2-18.5-27.2-32.5-44.5-45c-0.9-0.7-3.2-0.4-4.3,0.4c-14.9,10.7-28.6,22.6-39.4,37.6
			c-10.4,14.5-16.6,30.4-15.7,48.6c0.2,4.1,0.7,8.1,1.1,12.2c-12.6-3.4-17.9-15.2-12-26.4c1.4-2.6,3.2-5.1,5.2-7.3
			c2.1-2.3,2.5-4.3-0.2-6.2c-4.8-3.5-9.5-7.4-14.7-10.1c-12.5-6.2-26.2-8.4-40-8c-7.5,0.2-15,2.2-22.4,3.7c-1,0.2-1.6,2-2.4,3.1
			c1.1,0.6,2.1,1.6,3.3,1.8c10.7,1.5,19.8,6.2,26.9,14.1c1.9,2.1,3.1,5.2,3.5,8c0.4,2.5,1.1,3.4,3.5,3.9c6.1,1.3,8.8,4.1,8.9,10.2
			c0,2.9,1.2,3.9,3.7,4.7c4.8,1.5,8.5,4.4,11.2,8.8c4.5,7.5,10.9,12.9,18.8,16.6c4.5,2.1,8.9,4.5,13.1,7.2
			c7.4,4.9,10.4,12.3,11.4,21.9c-1.6-1.4-2.5-2.2-3.3-3c-23.4-21.4-50-26.7-79.8-15.5c-14.1,5.3-26.8,13.3-38.9,22.2
			c-6.5,4.7-13,9.3-19.8,13.6c-6.6,4.1-13.7,7.1-21.8,6.8c-10.9-0.4-19.2-9.4-18.3-20c0.9-10.6,8.7-16.2,20.4-14.8
			c1.1,0.1,2.4-0.9,3.6-1.4c-0.8-1.1-1.4-2.7-2.5-3.1c-8.8-3.1-17.1-2-24.1,4.5c-14,13-8.4,39.3,9.9,47.4c9.4,4.2,19.3,4.9,28.9,1.6
			c9.4-3.2,18.5-7.4,27.4-11.8c11.3-5.7,22.6-11,34.9-14.3c17.6-4.6,33.5-2.3,46.7,11c2.5,2.6,4.7,5.9,5.8,9.3
			c1.4,3.9-1,6.8-5.2,6.6c-3-0.1-6.1-1-9-2c-5.7-1.9-11.1-4.5-16.9-6.1c-11.5-3.1-23-3.8-33.9,1.9c-14.6,7.6-16.2,25.2-3.1,35
			c3.8,2.9,8.5,4.6,12.8,6.9c1.4,0.7,3.1,1.2,4.3,2.1c3.4,2.4,3.1,6.1-0.5,8.2c-3.1,1.8-6.6,1.3-10.1-1.1c-0.9-0.6-2.4-0.4-3.6-0.6
			c-0.1,1.1-0.7,2.7-0.2,3.4c1.6,2,3.2,4.2,5.4,5.4c6.4,3.4,13.8,1.6,18.3-3.8c4.3-5.3,4.4-13.2-0.4-18.6c-2.6-2.9-6.1-5.1-9.1-7.7
			c-2.3-1.9-4.6-3.8-6.7-6c-2.2-2.4-1.5-4.6,1.2-6.1c1.1-0.6,2.3-1.1,3.5-1.4c9.9-2.4,18.3,1,26.4,6.3c6,3.9,12.5,7.2,18.8,10.6
			c1.4,0.8,3.1,1,4.4,1.4c-3.6,5-7.4,9.5-10.2,14.6c-2.9,5.2-4.9,10.9-6.9,16.5c-4.1,11.1-9.2,21.6-17.8,30
			c-7.7,7.5-16.6,12-27.7,10.8C83.9,286,78.5,273.6,86,263c1.1-1.5,3.5-3.1,1.3-5.1c-2.3-2.1-3.7,0.5-5.4,1.7
			c-0.5,0.4-0.9,0.9-1.3,1.3c-11.8,13.5-4.8,33.7,13.3,37.4c15.4,3.2,29.2-1.1,41.3-10.9c10.3-8.3,17.7-18.9,23.8-30.5
			c2.1-4,4.4-7.9,7.1-11.4c3.8-5,8.5-9,15.1-11.1c3.7,15.4,13.6,26.2,24.5,36.6c3.9,3.7,6.6,9,9.2,14c2.4,4.7,2.4,9.9,0.5,14.9
			c-2.5,6.5-9.5,10-16.2,8.2c-6-1.6-9.1-7.1-8.5-14c0.1-1.3-0.9-2.7-1.3-4c-1.2,1-2.9,1.8-3.4,3.1c-3,8.1,0.7,17.5,8.6,21.7
			C196.7,316.2,199,317,201.3,318z M400.4,84c-1.1-3.3-2-6.4-3.3-9.4c-0.5-1.2-1.8-2-2.8-2.9c-0.8,0.9-2,1.7-2.5,2.8
			c-1.3,3-1.4,7.3-3.5,8.8c-2.3,1.6-6.4,0.5-9.8,0.8c-1.2,0.1-3,0.8-3.2,1.6c-0.2,1,0.6,2.6,1.5,3.3c2.5,2.2,5.3,4.1,8.2,6.1
			c-1,3-2.1,5.7-2.7,8.6c-0.3,1.5,0.2,3.2,0.3,4.8c1.5-0.4,3.1-0.6,4.3-1.3c2.6-1.6,5.1-3.5,7.6-5.3c2.7,2,5.2,4,7.8,5.6
			c1.1,0.7,2.7,0.7,4,1c0.1-1.3,0.6-2.8,0.3-4c-0.5-2.3-1.3-4.6-2.1-6.8c-0.8-2-0.3-3.2,1.5-4.3c2.2-1.4,4.4-2.9,6.3-4.7
			c0.8-0.7,1.6-2.2,1.3-3c-0.3-0.8-1.8-1.6-2.8-1.7C407.4,83.9,403.9,84,400.4,84z M70.4,101.9c2.7,2,5.2,4,8,5.7
			c1.1,0.7,2.7,0.6,4,0.9c0.1-1.3,0.8-2.8,0.3-3.7c-3.9-7.1-2.4-12.2,5-15.7c1-0.5,1.3-2.4,1.9-3.6c-1.1-0.5-2.3-1.4-3.4-1.5
			c-3.2-0.3-7.4,1-9.5-0.6c-2.2-1.7-2.5-6-3.8-9c-0.5-1.1-1.7-1.8-2.5-2.8c-0.9,0.9-2.2,1.6-2.6,2.7c-1.3,3.1-2.2,6.3-3.3,9.6
			c-3.5,0-6.9-0.1-10.2,0.1c-1.1,0.1-2.9,0.8-2.9,1.4c-0.1,1.1,0.5,3,1.3,3.3c7.7,3.6,9.3,8.9,5.3,16.2c-0.4,0.8,0.2,2.3,0.3,3.4
			c1.3-0.2,2.8,0,3.8-0.6C64.9,106.1,67.5,104,70.4,101.9z"/>
		<path d="M201.3,318c-2.3-1-4.6-1.8-6.8-3c-7.9-4.2-11.6-13.6-8.6-21.7c0.5-1.3,2.2-2.1,3.4-3.1c0.5,1.3,1.5,2.7,1.3,4
			c-0.7,6.9,2.5,12.4,8.5,14c6.7,1.8,13.7-1.7,16.2-8.2c1.9-5,1.9-10.2-0.5-14.9c-2.6-4.9-5.2-10.2-9.2-14
			c-10.9-10.4-20.8-21.3-24.5-36.6c-6.5,2.1-11.3,6.1-15.1,11.1c-2.7,3.6-5,7.5-7.1,11.4c-6.1,11.6-13.5,22.2-23.8,30.5
			c-12.1,9.8-25.9,14.1-41.3,10.9c-18.1-3.7-25.1-23.9-13.3-37.4c0.4-0.5,0.8-1,1.3-1.3c1.6-1.1,3.1-3.8,5.4-1.7
			c2.1,2-0.3,3.6-1.3,5.1c-7.5,10.6-2.2,22.9,10.7,24.3c11,1.2,20-3.3,27.7-10.8c8.6-8.4,13.7-18.9,17.8-30
			c2.1-5.6,4.1-11.3,6.9-16.5c2.8-5.1,6.7-9.6,10.2-14.6c-1.3-0.4-3-0.6-4.4-1.4c-6.3-3.4-12.8-6.7-18.8-10.6
			c-8.2-5.3-16.6-8.7-26.4-6.3c-1.2,0.3-2.4,0.8-3.5,1.4c-2.7,1.5-3.5,3.7-1.2,6.1c2,2.2,4.4,4,6.7,6c3,2.6,6.5,4.7,9.1,7.7
			c4.8,5.4,4.7,13.3,0.4,18.6c-4.4,5.5-11.9,7.2-18.3,3.8c-2.2-1.2-3.9-3.4-5.4-5.4c-0.5-0.7,0.1-2.2,0.2-3.4c1.2,0.2,2.7,0,3.6,0.6
			c3.5,2.4,7,3,10.1,1.1c3.6-2.1,3.9-5.7,0.5-8.2c-1.3-0.9-2.9-1.4-4.3-2.1c-4.3-2.2-9-4-12.8-6.9c-13.1-9.8-11.5-27.5,3.1-35
			c11-5.7,22.5-5,33.9-1.9c5.7,1.6,11.2,4.2,16.9,6.1c2.9,1,6,1.9,9,2c4.2,0.1,6.5-2.7,5.2-6.6c-1.2-3.4-3.3-6.7-5.8-9.3
			c-13.2-13.3-29.2-15.6-46.7-11c-12.3,3.2-23.6,8.6-34.9,14.3c-8.9,4.5-18,8.6-27.4,11.8c-9.6,3.3-19.5,2.6-28.9-1.6
			c-18.4-8.1-24-34.4-9.9-47.4c7-6.5,15.2-7.6,24.1-4.5c1.1,0.4,1.7,2,2.5,3.1c-1.2,0.5-2.5,1.6-3.6,1.4
			c-11.7-1.4-19.5,4.1-20.4,14.8c-0.9,10.6,7.4,19.6,18.3,20c8.1,0.3,15.2-2.6,21.8-6.8c6.8-4.2,13.3-8.9,19.8-13.6
			c12.2-8.9,24.8-16.9,38.9-22.2c29.8-11.2,56.4-5.9,79.8,15.5c0.9,0.8,1.7,1.5,3.3,3c-1-9.6-4-17-11.4-21.9
			c-4.2-2.7-8.6-5.1-13.1-7.2c-7.9-3.7-14.3-9.2-18.8-16.6c-2.7-4.4-6.4-7.3-11.2-8.8c-2.4-0.8-3.6-1.8-3.7-4.7
			c-0.1-6.1-2.7-8.9-8.9-10.2c-2.3-0.5-3.1-1.4-3.5-3.9c-0.4-2.8-1.6-5.9-3.5-8c-7.2-8-16.2-12.7-26.9-14.1
			c-1.1-0.2-2.2-1.2-3.3-1.8c0.8-1.1,1.5-2.9,2.4-3.1c7.4-1.5,14.9-3.5,22.4-3.7c13.8-0.4,27.5,1.8,40,8c5.3,2.6,9.9,6.6,14.7,10.1
			c2.7,1.9,2.3,3.9,0.2,6.2c-2,2.2-3.8,4.7-5.2,7.3c-5.9,11.1-0.6,22.9,12,26.4c-0.4-4.1-0.9-8.1-1.1-12.2
			c-0.9-18.2,5.3-34.1,15.7-48.6c10.8-15,24.5-26.9,39.4-37.6c1-0.7,3.4-1,4.3-0.4c17.3,12.5,33.3,26.4,44.5,45
			c9.5,15.7,13.4,32.7,10.2,51c-0.1,0.7-0.2,1.5-0.3,2.2c0,0.1,0.1,0.2,0.1,0.3c9.5-1.3,16.8-12.2,13.7-21.3
			c-1.5-4.4-4.3-8.4-7.1-12.1c-2-2.6-1.9-4.1,0.3-6.3c9-9.1,20.4-13.3,32.5-15.8c13.1-2.7,26.3-3.3,39.4-0.2
			c1.8,0.4,3.7,0.9,5.3,1.8c1,0.6,1.6,1.9,2.3,2.9c-1,0.7-2,1.8-3.1,2c-10.2,1.3-18.8,5.7-26,12.9c-2.8,2.8-4.9,5.9-4.9,10.2
			c0,0.9-1.5,2.5-2.6,2.8c-7.1,2-8.8,4-9.5,11c-0.1,1.3-1.5,3.2-2.7,3.6c-5.4,1.9-9.6,5-12.6,10c-4.3,7-10.4,11.9-17.7,15.7
			c-5.5,2.8-11.1,5.8-16,9.5c-6.1,4.5-8,11.4-8.1,19.1c0.9-0.8,1.7-1.5,2.6-2.3c15.3-14.3,33.2-22,54.3-21.1
			c16.1,0.7,30.7,6.6,44.3,14.8c8.2,4.9,15.9,10.8,24,16c7.7,5,15.4,10.1,23.6,14.5c6.2,3.3,13.1,4.1,20,1.8
			c7.9-2.6,13.1-10.8,12.2-19.4c-0.8-8.1-6.2-13.6-14.5-14.6c-1.8-0.2-3.7,0.5-5.5,0.4c-1.3-0.1-2.5-0.8-3.8-1.2
			c0.8-1.1,1.4-2.9,2.6-3.3c13.4-5.4,27.7,2.6,31,17.2c0.2,1.1,0.6,2.1,0.9,3.2c0,2.5,0,5,0,7.5c-0.2,0.3-0.5,0.6-0.5,1
			c-2.6,16.8-17.7,28-37.3,26.4c-11.7-0.9-22.1-5.8-32.3-11.3c-12.6-6.7-25.3-13-39.2-16.6c-17.6-4.5-33.5-2.2-46.7,11.2
			c-2.3,2.3-4.4,5.2-5.6,8.2c-1.8,4.6,1.1,8.1,6,7.7c2.7-0.2,5.3-1.2,7.9-2.1c6.9-2.3,13.5-5.3,20.5-6.9c10.6-2.5,21.4-2.5,31.3,3.2
			c13.7,7.8,15.1,24.5,2.6,34.2c-4,3.1-8.9,4.9-13.4,7.3c-1.3,0.7-2.8,1.1-4,2c-3.5,2.5-3.2,6.4,0.7,8.4c3.4,1.7,6.7,1.5,9.8-1.1
			c0.8-0.7,2.4-0.5,3.6-0.7c0.1,1.3,0.6,2.9,0.1,3.7c-1.3,1.9-3,3.8-4.9,4.9c-6.1,3.5-14.1,1.9-18.4-3.4c-4.6-5.6-4.7-13.5,0.1-18.9
			c2.7-3,6.3-5.2,9.5-7.9c2.2-1.8,4.4-3.7,6.4-5.8c2.2-2.4,1.5-4.6-1.2-6.2c-1.2-0.7-2.5-1.1-3.8-1.4c-9.4-2.1-17.8,0.6-25.4,6.1
			c-7.4,5.4-15.1,10.1-24.2,12.3c0.3,0.5,0.4,0.9,0.6,1.1c8.1,8.2,13.1,18.1,16.6,28.9c3.9,11.9,9.5,22.8,18.7,31.6
			c8,7.6,17.3,11.7,28.6,10c8.7-1.3,14-8.5,12.1-17c-0.6-2.9-2.7-5.5-3.9-8.4c-0.5-1.2-0.3-2.6-0.4-3.9c1.3,0.2,2.7,0.3,4,0.6
			c0.4,0.1,0.8,0.6,1.1,0.9c6.5,6.3,8.7,13.9,6.4,22.6c-2.4,9.3-9.2,14.5-18.2,16.3c-16,3.2-30.1-1.4-42.4-11.8
			c-9.8-8.3-16.8-18.6-22.8-29.9c-2.4-4.6-5.4-9-8.6-13.1c-3.3-4.2-7.8-7.2-13.3-9.1c-3.7,15.4-13.5,26.3-24.5,36.7
			c-3.7,3.5-6.5,8.3-8.7,13c-1.6,3.5-2.1,7.7-1.9,11.6c0.3,7.8,7.5,13.8,14.6,13c7.7-0.9,11.7-6.3,11-14.9c-0.1-1.2,1-2.4,1.5-3.6
			c1.1,0.8,2.7,1.4,3.1,2.5c2.6,6.6,1.7,13.1-3.3,18c-3.2,3.2-7.9,4.9-11.9,7.3c-2.8,0-5.5,0-8.3,0c-0.2-0.2-0.3-0.5-0.5-0.5
			c-16.2-3.7-22.4-20.8-20-33.5c2-10.3,6.4-19.3,12.7-27.6c4.9-6.5,9.7-13.2,11.1-21.4c2.4-13.3-2.1-25-17.7-27.8
			c-3.8-0.7-7.7-1-11.5-0.8c-19.4,1-28.9,15.6-21.4,33.6c2.5,6,6.3,11.6,10.1,16.9c5.8,8.3,10.3,17,12.1,27.1
			c2.4,13.7-4.2,27.1-15.9,32c-1.6,0.7-3.2,1.3-4.8,1.9C206.8,318,204,318,201.3,318z M262.1,160.4c-19.2-18.5-41.8-16.4-58.9,0
			C219.6,176.1,242.6,179,262.1,160.4z"/>
		<path class="st0" d="M263.5,318c4-2.4,8.7-4.1,11.9-7.3c5-4.9,5.9-11.4,3.3-18c-0.4-1.1-2-1.7-3.1-2.5c-0.5,1.2-1.6,2.5-1.5,3.6
			c0.7,8.5-3.2,14-11,14.9c-7.1,0.8-14.2-5.2-14.6-13c-0.2-3.9,0.3-8.2,1.9-11.6c2.1-4.7,5-9.5,8.7-13
			c10.9-10.4,20.8-21.2,24.5-36.7c5.6,1.8,10,4.8,13.3,9.1c3.2,4.1,6.1,8.5,8.6,13.1c6,11.3,13,21.6,22.8,29.9
			c12.3,10.5,26.4,15,42.4,11.8c9-1.8,15.8-7,18.2-16.3c2.3-8.7,0.1-16.3-6.4-22.6c-0.4-0.3-0.7-0.8-1.1-0.9c-1.3-0.3-2.6-0.4-4-0.6
			c0.1,1.3-0.1,2.8,0.4,3.9c1.2,2.8,3.3,5.4,3.9,8.4c1.9,8.5-3.4,15.7-12.1,17c-11.3,1.7-20.6-2.4-28.6-10
			c-9.2-8.7-14.9-19.7-18.7-31.6c-3.5-10.9-8.5-20.7-16.6-28.9c-0.2-0.2-0.3-0.6-0.6-1.1c9.1-2.2,16.8-6.9,24.2-12.3
			c7.6-5.5,15.9-8.2,25.4-6.1c1.3,0.3,2.7,0.8,3.8,1.4c2.7,1.5,3.4,3.8,1.2,6.2c-1.9,2.1-4.2,3.9-6.4,5.8c-3.1,2.6-6.7,4.9-9.5,7.9
			c-4.9,5.4-4.7,13.3-0.1,18.9c4.3,5.2,12.3,6.9,18.4,3.4c2-1.1,3.6-3,4.9-4.9c0.6-0.8,0-2.4-0.1-3.7c-1.2,0.2-2.8,0-3.6,0.7
			c-3.1,2.6-6.4,2.8-9.8,1.1c-3.9-1.9-4.2-5.9-0.7-8.4c1.2-0.9,2.7-1.3,4-2c4.5-2.4,9.4-4.2,13.4-7.3c12.5-9.7,11.1-26.3-2.6-34.2
			c-9.9-5.7-20.7-5.7-31.3-3.2c-7,1.6-13.7,4.6-20.5,6.9c-2.6,0.9-5.2,1.9-7.9,2.1c-4.9,0.4-7.7-3.1-6-7.7c1.2-3,3.3-5.9,5.6-8.2
			c13.2-13.3,29.1-15.7,46.7-11.2c13.9,3.6,26.6,9.8,39.2,16.6c10.1,5.5,20.5,10.3,32.3,11.3c19.6,1.6,34.7-9.6,37.3-26.4
			c0.1-0.3,0.4-0.6,0.5-1c0,52.3,0,104.5,0,156.8C397,318,330.3,318,263.5,318z"/>
		<path class="st0" d="M209.5,318c1.6-0.6,3.2-1.2,4.8-1.9c11.7-4.9,18.3-18.3,15.9-32c-1.8-10-6.3-18.8-12.1-27.1
			c-3.8-5.4-7.6-10.9-10.1-16.9c-7.4-18,2-32.6,21.4-33.6c3.8-0.2,7.8,0.1,11.5,0.8c15.6,2.8,20,14.5,17.7,27.8
			c-1.4,8.2-6.2,14.9-11.1,21.4c-6.3,8.3-10.7,17.3-12.7,27.6c-2.4,12.7,3.8,29.8,20,33.5c0.2,0,0.3,0.3,0.5,0.5
			C240,318,224.8,318,209.5,318z"/>
		<path d="M400.4,84c3.5,0,7-0.1,10.5,0.1c1,0.1,2.6,0.9,2.8,1.7c0.3,0.8-0.5,2.3-1.3,3c-2,1.7-4.1,3.3-6.3,4.7
			c-1.8,1.1-2.3,2.4-1.5,4.3c0.9,2.2,1.7,4.5,2.1,6.8c0.3,1.3-0.2,2.7-0.3,4c-1.4-0.3-2.9-0.3-4-1c-2.6-1.6-5.1-3.6-7.8-5.6
			c-2.5,1.8-4.9,3.7-7.6,5.3c-1.2,0.8-2.9,0.9-4.3,1.3c-0.1-1.6-0.6-3.3-0.3-4.8c0.6-2.9,1.8-5.7,2.7-8.6c-2.8-2.1-5.6-4-8.2-6.1
			c-0.9-0.8-1.7-2.4-1.5-3.3c0.2-0.8,2-1.5,3.2-1.6c3.3-0.3,7.5,0.8,9.8-0.8c2.2-1.5,2.3-5.8,3.5-8.8c0.5-1.1,1.6-1.9,2.5-2.8
			c0.9,1,2.3,1.8,2.8,2.9C398.4,77.6,399.3,80.7,400.4,84z"/>
		<path d="M70.4,101.9c-2.8,2.1-5.5,4.2-8.3,5.9c-1,0.6-2.5,0.4-3.8,0.6c-0.1-1.1-0.8-2.6-0.3-3.4c4-7.4,2.4-12.7-5.3-16.2
			c-0.8-0.4-1.5-2.3-1.3-3.3c0.1-0.6,1.9-1.4,2.9-1.4C57.6,83.9,61,84,64.5,84c1.1-3.3,2-6.5,3.3-9.6c0.4-1.1,1.7-1.8,2.6-2.7
			c0.9,0.9,2.1,1.7,2.5,2.8c1.3,3,1.6,7.3,3.8,9c2.1,1.6,6.2,0.3,9.5,0.6c1.2,0.1,2.3,1,3.4,1.5c-0.6,1.2-0.9,3.1-1.9,3.6
			c-7.4,3.5-8.9,8.6-5,15.7c0.5,0.9-0.2,2.5-0.3,3.7c-1.4-0.3-2.9-0.2-4-0.9C75.6,106,73.1,103.9,70.4,101.9z"/>
		<path class="st0" d="M262.1,160.4c-19.4,18.6-42.4,15.7-58.9,0C220.2,144,242.8,141.8,262.1,160.4z M238.1,160.5
			c0-3.1-2.5-5.8-5.6-5.9c-3.1,0-5.7,2.6-5.8,5.7c0,3.2,2.4,5.7,5.6,5.7C235.6,166.1,238.1,163.8,238.1,160.5z"/>
		<path d="M238.1,160.5c0,3.2-2.5,5.6-5.8,5.6c-3.2,0-5.6-2.5-5.6-5.7c0-3.1,2.7-5.7,5.8-5.7C235.6,154.7,238.1,157.4,238.1,160.5z"
			/>
	</g>
</g>
</svg>
